<?xml version="1.0" encoding="UTF-8"?>
<svg id="Layer_1" data-name="Layer 1" xmlns="http://www.w3.org/2000/svg" viewBox="0 0 65.21 65.22">
  <defs>
    <style>
      .cls-1 {
        fill: #f00;
      }
    </style>
  </defs>
  <polygon class="cls-1" points="18.6 47.86 22.65 43.81 14.25 35.41 13 34.17 8.95 38.21 10.2 39.45 18.6 47.86"/>
  <path class="cls-1" d="M41.79,58.6c-1.2,1.2-3.15,1.2-4.36,0l-7.62-7.62-4.05,4.05,7.62,7.63c3.43,3.43,9.02,3.43,12.45,0,3.17-3.17,3.41-8.17,.73-11.62l-4.14,4.14c.5,1.13,.29,2.51-.63,3.43Z"/>
  <path class="cls-1" d="M6.62,23.43c1.2-1.2,3.16-1.2,4.36,0l5.6,5.6c3.43,3.43,9.02,3.43,12.45,0,3.17-3.17,3.41-8.17,.73-11.62l-4.14,4.14c.5,1.13,.29,2.51-.63,3.43-1.2,1.2-3.16,1.2-4.36,0l-5.6-5.6c-3.43-3.43-9.02-3.43-12.45,0-3.17,3.17-3.41,8.17-.73,11.62l4.14-4.14c-.5-1.13-.3-2.51,.63-3.43Z"/>
  <path class="cls-1" d="M58.59,41.79c-1.2,1.2-3.16,1.2-4.36,0l-5.6-5.6c-3.43-3.43-9.02-3.43-12.45,0-3.17,3.17-3.41,8.17-.73,11.62l4.14-4.14c-.5-1.13-.29-2.51,.63-3.43,1.2-1.2,3.15-1.2,4.36,0l5.6,5.6c3.43,3.43,9.02,3.43,12.45,0,3.17-3.17,3.41-8.17,.73-11.62l-4.14,4.14c.5,1.13,.29,2.51-.63,3.43Z"/>
  <path class="cls-1" d="M23.43,6.62c1.2-1.2,3.15-1.2,4.36,0l7.63,7.62,4.04-4.04-7.62-7.63c-3.43-3.43-9.02-3.43-12.45,0-3.17,3.17-3.41,8.17-.73,11.62l4.14-4.14c-.5-1.13-.3-2.51,.63-3.43Z"/>
  <polygon class="cls-1" points="52.21 31.05 56.26 27.01 47.86 18.6 46.61 17.36 42.57 21.4 43.81 22.65 52.21 31.05"/>
  <path class="cls-1" d="M51.02,18.65l4.14,4.14c1.13-.5,2.51-.29,3.43,.63,1.2,1.2,1.2,3.15,0,4.36l-7.62,7.63,4.04,4.04,7.62-7.62c3.43-3.43,3.43-9.02,0-12.45-3.17-3.17-8.17-3.41-11.62-.73Z"/>
  <polygon class="cls-1" points="34.16 52.21 38.21 56.26 46.61 47.86 47.86 46.61 43.81 42.57 42.57 43.81 34.16 52.21"/>
  <path class="cls-1" d="M23.43,54.24l5.6-5.6c3.43-3.43,3.43-9.02,0-12.45-3.17-3.17-8.17-3.41-11.62-.73l4.14,4.14c1.13-.5,2.51-.29,3.43,.63,1.2,1.2,1.2,3.16,0,4.36l-5.6,5.6c-3.43,3.43-3.43,9.02,0,12.45,3.17,3.17,8.17,3.41,11.62,.73l-4.14-4.14c-1.13,.5-2.51,.29-3.43-.63-1.2-1.2-1.2-3.16,0-4.36Z"/>
  <path class="cls-1" d="M41.79,10.98l-5.6,5.6c-3.43,3.43-3.43,9.02,0,12.45,3.17,3.17,8.17,3.41,11.62,.73l-4.14-4.14c-1.13,.5-2.51,.29-3.43-.63-1.2-1.2-1.2-3.15,0-4.36l5.6-5.6c3.43-3.43,3.43-9.02,0-12.45-3.17-3.17-8.17-3.41-11.62-.73l4.14,4.14c1.13-.5,2.51-.29,3.43,.63,1.2,1.2,1.2,3.16,0,4.36Z"/>
  <path class="cls-1" d="M14.2,46.56l-4.14-4.14c-1.13,.5-2.51,.29-3.43-.63-1.2-1.2-1.2-3.15,0-4.36l7.62-7.62-4.05-4.05-7.63,7.62c-3.43,3.43-3.43,9.02,0,12.45,3.17,3.17,8.17,3.41,11.62,.73Z"/>
  <polygon class="cls-1" points="31.05 13 27.01 8.95 25.76 10.2 17.36 18.6 21.4 22.65 29.81 14.25 31.05 13"/>
</svg>